<svg width="1439" height="316" viewBox="0 0 1439 316" fill="none" xmlns="http://www.w3.org/2000/svg">
<path fill-rule="evenodd" clip-rule="evenodd" d="M0.91867 156.559L61.0286 138.157C121.139 119.755 241.359 82.9499 361.31 89.9753C481.262 97.0006 600.946 147.856 721.013 136.097C841.08 124.338 961.53 49.9647 1081.71 19.4215C1201.89 -11.1218 1321.81 2.16496 1381.76 8.80832L1441.72 15.4517L1439.88 316L1379.89 315.618C1319.89 315.236 1199.9 314.472 1079.91 313.708C959.922 312.944 839.932 312.181 719.942 311.417C599.951 310.653 479.961 309.889 359.971 309.125C239.981 308.361 119.99 307.597 59.9951 307.215L3.50979e-06 306.833L0.91867 156.559Z" fill="white"/>
</svg>
