<?xml version="1.0" standalone="no"?>
<!DOCTYPE svg PUBLIC "-//W3C//DTD SVG 20010904//EN"
 "http://www.w3.org/TR/2001/REC-SVG-20010904/DTD/svg10.dtd">
<svg version="1.0" xmlns="http://www.w3.org/2000/svg"
 width="3057.000000pt" height="3056.000000pt" viewBox="0 0 3057.000000 3056.000000"
 preserveAspectRatio="xMidYMid meet">

<g transform="translate(0.000000,3056.000000) scale(0.100000,-0.100000)"
fill="#000000" stroke="none">
<path d="M13390 30544 c-1146 -171 -2134 -421 -3240 -821 -569 -206 -942 -364
-1465 -623 -775 -384 -1492 -797 -2020 -1165 -104 -72 -225 -155 -267 -183
-108 -73 -372 -271 -530 -398 -838 -676 -1822 -1671 -2547 -2574 -1924 -2397
-3066 -5313 -3286 -8385 -48 -673 -48 -1442 0 -2110 79 -1100 277 -2221 571
-3235 371 -1280 982 -2647 1692 -3790 470 -756 962 -1405 1686 -2220 440 -495
1215 -1239 1726 -1654 1815 -1477 4038 -2578 6270 -3104 432 -102 957 -200
1375 -257 l185 -25 1758 0 1757 0 280 40 c902 130 1675 306 2440 557 1946 639
3598 1545 5112 2804 651 542 1346 1219 1926 1877 1142 1295 2026 2729 2672
4337 566 1406 881 2708 1020 4205 76 823 87 1852 30 2695 -70 1022 -216 1899
-515 3080 -103 408 -245 831 -393 1170 -19 44 -71 163 -115 265 -197 455 -401
886 -577 1220 -674 1279 -1433 2339 -2467 3445 -217 232 -740 754 -943 941
-1593 1463 -3424 2551 -5440 3230 -978 330 -1826 529 -2828 665 l-218 29
-1777 -1 c-1477 -1 -1793 -4 -1872 -15z m6300 -3688 c196 -26 374 -83 571
-182 549 -274 921 -795 1014 -1417 21 -142 21 -411 0 -554 -84 -569 -397
-1044 -917 -1394 -123 -83 -223 -132 -365 -178 -267 -88 -520 -117 -845 -97
-80 5 -163 5 -183 2 -30 -6 -89 -55 -318 -263 -281 -255 -497 -461 -497 -475
0 -20 282 -152 770 -360 484 -205 484 -206 608 -371 129 -171 678 -1028 982
-1532 244 -404 632 -1021 822 -1305 68 -102 88 -126 109 -128 31 -4 315 46
1089 188 1037 191 1318 226 1905 237 471 9 1672 -33 1825 -63 16 -4 30 -10 30
-14 0 -20 -1173 -529 -2260 -980 -2107 -873 -2699 -1099 -3040 -1155 -169 -29
-263 -8 -356 77 -98 90 -379 454 -965 1253 -725 987 -896 1232 -989 1420 -47
94 -54 115 -58 183 -7 127 35 280 214 774 57 158 149 403 205 544 55 140 99
260 97 266 -5 14 -108 -88 -496 -492 -662 -691 -1329 -1312 -1672 -1557 -486
-347 -980 -609 -1360 -723 -203 -60 -327 -80 -570 -90 -766 -34 -1413 -70
-2095 -115 -562 -38 -725 -52 -725 -65 0 -13 230 -65 555 -125 1738 -325 3478
-763 4850 -1219 437 -146 632 -216 1050 -378 903 -351 1094 -465 1224 -730 44
-88 53 -116 62 -195 29 -249 -41 -754 -432 -3153 -351 -2154 -487 -2910 -545
-3022 -20 -39 -60 -56 -394 -166 -442 -145 -861 -265 -876 -250 -21 21 -26
685 -22 3071 l4 2578 -21 4 c-31 7 -792 126 -1450 226 -2363 359 -3198 508
-3710 664 -316 96 -602 236 -827 406 -115 86 -320 296 -401 409 -77 109 -193
338 -231 455 -124 391 -116 818 23 1235 228 679 979 1846 2140 3325 207 264
802 1002 940 1167 4 4 294 1 646 -7 1289 -28 1298 -28 1291 -17 -6 11 -108 65
-626 332 -974 503 -1393 733 -2605 1435 -361 208 -583 325 -627 328 -22 2 -51
-22 -165 -133 -175 -172 -576 -549 -1673 -1575 -899 -841 -1135 -1058 -1253
-1154 -38 -31 -91 -85 -118 -121 -51 -68 -63 -87 -419 -695 -276 -471 -686
-1161 -1005 -1695 -256 -428 -313 -532 -339 -619 -19 -65 -11 -105 40 -197
108 -194 155 -518 105 -717 -53 -205 -232 -470 -640 -947 -421 -491 -972
-1042 -1008 -1006 -10 10 51 143 159 349 93 176 148 275 414 745 148 260 274
508 274 538 0 47 -112 123 -166 112 -21 -4 -89 -101 -346 -490 -365 -554 -705
-998 -764 -998 -21 0 -18 66 7 146 59 190 268 621 515 1059 156 277 254 466
254 488 0 8 -9 22 -19 31 -27 24 -137 57 -166 50 -56 -14 -113 -95 -415 -594
-425 -701 -556 -900 -592 -900 -18 0 -6 107 26 232 114 445 352 1073 590 1563
174 357 301 533 463 641 134 89 250 115 558 123 l230 6 388 640 c1115 1836
1302 2161 1342 2336 11 48 15 122 15 254 l0 187 397 616 c914 1422 1375 2087
1991 2876 601 770 829 986 1058 1003 42 3 92 1 119 -6 82 -21 869 -393 2395
-1134 1640 -795 2257 -1104 2305 -1154 51 -53 176 -311 306 -633 152 -378 209
-513 225 -529 18 -20 89 35 195 151 46 51 120 132 165 179 48 51 83 98 87 114
7 40 -16 110 -85 260 -159 345 -210 558 -211 885 -1 410 111 775 344 1115 303
443 780 735 1299 794 124 14 455 12 570 -3z m-11144 -1656 c170 -12 210 -23
242 -70 29 -44 25 -82 -21 -177 l-32 -68 -957 -3 -956 -2 -32 67 c-42 88 -48
136 -25 179 25 47 79 65 222 74 177 11 1397 11 1559 0z m8 -1177 c66 -11 91
-44 90 -118 0 -41 -7 -65 -30 -102 -37 -61 -91 -88 -199 -103 -214 -28 -2746
-36 -3133 -10 -167 12 -204 22 -256 70 -82 76 -93 126 -40 190 49 58 86 68
303 80 175 10 3200 4 3265 -7z m-1754 -1253 c923 -29 1015 -38 1041 -107 19
-51 -27 -160 -79 -187 -61 -32 -147 -37 -807 -47 -958 -16 -2345 4 -2443 35
-31 10 -62 77 -62 135 0 96 51 154 147 166 141 18 417 23 1123 20 415 -3 901
-9 1080 -15z m19085 -171 c180 -13 311 -39 488 -95 587 -188 1070 -472 1464
-861 259 -256 642 -787 599 -831 -4 -3 -1101 -8 -2439 -10 -2833 -5 -3628 5
-3669 46 -15 15 36 119 107 217 199 277 633 720 892 912 163 120 449 276 718
391 380 162 618 224 945 246 98 7 751 -4 895 -15z m-19362 -1229 c645 -11 634
-10 656 -71 18 -52 13 -92 -20 -157 -37 -75 -69 -96 -169 -113 -99 -16 -2191
-24 -2732 -10 -443 11 -432 8 -481 100 -43 77 -32 182 22 210 40 22 169 33
451 40 449 11 1615 12 2273 1z m5399 -18 c61 -26 76 -123 32 -210 -14 -29 -40
-63 -58 -76 -61 -47 -97 -51 -461 -51 -361 0 -499 11 -545 44 -76 53 -94 247
-27 283 40 22 149 26 592 24 308 -1 448 -5 467 -14z m17518 -1123 c-148 -96
-255 -154 -385 -210 -956 -409 -2721 -601 -4560 -494 -1328 76 -2055 211
-2748 506 -168 72 -343 159 -417 208 l-55 36 240 5 c132 3 1991 6 4130 8
l3890 2 -95 -61z m-23825 -149 c523 -9 683 -18 727 -41 24 -13 48 -61 48 -96
0 -15 -17 -59 -38 -98 l-38 -70 -225 -6 c-123 -4 -800 -15 -1504 -25 -1522
-21 -1688 -17 -1768 46 -42 33 -77 116 -77 179 1 77 11 87 100 96 185 19 1949
28 2775 15z m4926 -7 l547 -6 11 -106 c14 -119 8 -146 -35 -180 -69 -54 -192
-61 -1075 -61 l-756 0 -32 75 c-36 87 -39 140 -11 195 26 51 58 71 128 80 78
10 565 11 1223 3z m-506 -1294 c252 -13 304 -22 332 -54 70 -80 7 -235 -110
-271 -85 -26 -586 -38 -1037 -25 -410 12 -513 21 -543 48 -77 70 -89 267 -19
295 70 27 926 31 1377 7z m-169 -1289 c141 -11 192 -28 218 -71 24 -41 17 -88
-25 -180 l-33 -72 -796 6 c-916 8 -1022 15 -1084 72 -32 29 -34 77 -9 183 l17
72 795 0 c438 0 851 -5 917 -10z m-458 -1250 c178 -14 223 -33 264 -114 41
-79 1 -213 -74 -249 -58 -28 -265 -36 -923 -36 -594 0 -888 9 -985 30 -42 9
-64 21 -96 53 -77 76 -78 155 -3 239 47 54 79 66 214 77 139 11 1452 11 1603
0z m1171 -422 c22 -29 228 -346 459 -704 231 -358 548 -849 706 -1092 157
-242 286 -443 286 -446 0 -7 -699 -1044 -989 -1466 -273 -399 -389 -562 -578
-816 l-165 -221 -562 -233 c-308 -129 -714 -298 -901 -378 -855 -361 -2991
-1231 -3443 -1402 l-163 -61 -1022 205 c-562 112 -1103 223 -1202 246 -197 46
-337 89 -342 106 -7 20 452 261 1862 979 1563 795 2124 1084 2770 1423 215
112 629 326 920 476 292 149 612 314 713 366 l184 95 100 215 c55 118 228 485
385 815 351 738 469 989 683 1452 170 368 234 493 250 493 5 0 27 -24 49 -52z
m-1697 -917 c211 -17 238 -31 238 -128 0 -40 -8 -70 -37 -127 l-36 -74 -1036
-7 c-570 -3 -1670 -7 -2446 -7 -1410 -1 -1645 3 -1747 34 -49 14 -105 77 -114
127 -9 48 29 119 77 143 56 28 203 40 594 48 541 11 4352 4 4507 -9z m-1242
-1289 c284 -8 300 -12 347 -82 43 -63 23 -193 -34 -219 -90 -41 -474 -50
-2528 -59 -1954 -9 -2995 -3 -3060 18 -60 19 -107 45 -136 77 -31 32 -59 85
-59 108 0 20 76 102 110 120 51 26 199 38 585 45 437 9 4378 2 4775 -8z
m-2045 -1252 c286 -12 308 -15 345 -50 53 -49 52 -115 -3 -197 -70 -104 -112
-106 -1968 -100 -1350 5 -1593 10 -1662 36 -85 32 -86 186 -3 259 48 42 141
53 526 62 424 10 2468 3 2765 -10z m-2203 -1200 c184 -11 220 -22 238 -74 27
-82 -22 -193 -106 -242 -44 -26 -57 -28 -218 -36 -328 -16 -1457 7 -1575 33
-100 21 -175 120 -169 222 4 75 30 87 201 96 192 11 1445 12 1629 1z m18898
-2661 c3007 -5 5043 -13 5130 -18 277 -19 380 -41 388 -84 2 -11 -45 -68 -134
-162 l-137 -145 -12228 0 -12228 0 -73 58 c-40 32 -87 75 -105 95 -80 91 -164
240 -146 258 5 5 454 10 1033 12 1500 5 12731 -4 18500 -14z m-3201 -1399
c307 -54 563 -170 829 -377 155 -121 350 -334 451 -491 33 -52 33 -53 15 -74
-43 -47 -588 -444 -731 -532 l-63 -39 -37 26 c-21 15 -94 74 -163 132 -197
168 -320 234 -500 271 -107 21 -263 15 -370 -16 -191 -55 -407 -206 -471 -332
-94 -184 -106 -328 -119 -1402 l-10 -820 66 -115 c86 -149 120 -196 197 -268
146 -137 319 -191 569 -180 309 13 561 144 750 389 33 43 62 78 65 78 2 0 50
-42 106 -93 112 -102 363 -304 585 -471 l143 -107 -103 -122 c-338 -401 -697
-636 -1133 -743 -296 -72 -643 -72 -949 1 -644 152 -1202 694 -1390 1348 -61
210 -75 385 -83 1037 -6 519 7 1040 32 1252 69 588 494 1207 1005 1463 217
109 470 177 775 209 103 11 414 -3 534 -24z m-11954 -29 c158 -12 201 -23 220
-61 33 -65 -1 -172 -65 -205 -75 -39 -133 -40 -1720 -40 -1587 0 -1701 3
-1830 41 -64 19 -80 43 -80 120 0 56 3 65 26 83 63 49 196 62 739 71 560 10
2543 3 2710 -9z m1962 9 c945 -16 1153 -30 1321 -85 115 -38 324 -146 431
-222 299 -215 530 -557 615 -913 37 -154 46 -227 46 -402 1 -555 -228 -997
-669 -1292 -113 -75 -319 -179 -428 -215 -118 -40 -214 -49 -643 -61 -201 -6
-383 -13 -406 -16 l-41 -5 -7 -767 c-7 -800 -11 -922 -30 -922 -15 0 -252 152
-713 458 l-372 247 -1 2103 0 2102 159 0 c88 0 420 -5 738 -10z m4097 -10 c80
-6 144 -14 153 -22 63 -52 809 -1420 842 -1546 7 -23 16 -42 21 -42 16 0 66
69 123 168 55 97 117 215 477 907 100 193 210 397 243 454 l62 104 555 -8
c305 -4 587 -10 625 -14 65 -6 70 -8 68 -29 -4 -36 -92 -209 -238 -472 -76
-135 -263 -474 -417 -755 -328 -596 -638 -1154 -749 -1346 -50 -86 -82 -155
-88 -185 -27 -140 -45 -650 -62 -1744 -6 -415 -13 -756 -14 -758 -2 -2 -178
-7 -391 -12 -214 -5 -460 -11 -546 -14 l-158 -5 0 1214 0 1214 -396 698 c-508
895 -726 1275 -878 1532 -222 373 -366 644 -351 660 20 19 819 20 1119 1z
m12141 0 c1067 -9 1445 -19 1538 -40 72 -16 81 -54 34 -150 -32 -64 -81 -86
-227 -101 -85 -9 -792 -13 -2738 -16 l-2623 -4 -34 75 c-39 83 -44 139 -17
172 37 46 83 54 392 64 329 10 2422 11 3675 0z m-18092 -1251 c49 -5 102 -16
119 -25 30 -16 31 -16 26 -87 -4 -55 -13 -87 -37 -134 l-31 -63 -683 0 c-686
0 -1079 11 -1129 31 -55 22 -86 107 -67 182 22 90 53 98 409 108 347 9 1276 1
1393 -12z m18559 2 c137 -12 184 -28 194 -66 17 -67 -31 -165 -96 -197 -84
-41 -159 -43 -1885 -43 -1662 0 -1788 2 -1944 36 -64 13 -115 47 -120 79 -3
24 8 85 31 174 l10 39 1846 -6 c1079 -4 1896 -11 1964 -16z m-1417 -1211 c60
-6 126 -15 146 -20 46 -13 106 -77 114 -123 13 -66 -54 -154 -133 -177 -95
-27 -542 -34 -1554 -21 -1249 15 -1273 16 -1329 94 -38 53 -38 99 0 159 51 80
80 88 371 98 297 11 2252 3 2385 -10z m-17196 -1 c57 -10 72 -17 109 -54 39
-39 42 -47 42 -94 0 -81 -43 -142 -125 -177 -81 -35 -489 -29 -571 8 -71 33
-93 168 -42 246 23 34 37 44 80 56 29 8 67 17 83 19 69 9 363 6 424 -4z
m15566 -1290 c66 -5 134 -14 152 -20 62 -20 94 -120 59 -187 -16 -31 -61 -74
-92 -91 -149 -76 -1221 -81 -1470 -6 -80 24 -135 106 -114 171 23 70 81 114
170 129 133 23 1026 26 1295 4z"/>
<path d="M9317 6043 c-3 -6 18 -1113 22 -1175 1 -12 339 -9 448 3 115 13 230
47 294 87 140 89 250 286 265 476 12 151 -52 323 -160 432 -108 107 -216 151
-428 174 -112 12 -435 14 -441 3z"/>
</g>
</svg>
