<svg xmlns="http://www.w3.org/2000/svg" version="1.0" preserveAspectRatio="xMidYMid meet" viewBox="144.34 136.05 737.49 738.7">

<g transform="translate(0.000000,1024.000000) scale(0.100000,-0.100000)" fill="#000000" stroke="none">
<path d="M4835 8869 c-371 -34 -727 -122 -1107 -275 -187 -75 -509 -248 -673 -363 -27 -19 -63 -44 -80 -55 -201 -140 -456 -381 -669 -631 -657 -772 -960 -1787 -835 -2790 56 -446 168 -815 370 -1218 144 -286 314 -534 541 -788 93 -105 115 -127 269 -274 194 -186 477 -388 744 -532 526 -284 1060 -431 1630 -449 360 -12 802 51 1145 162 567 183 1040 466 1464 875 449 433 748 894 949 1464 132 375 197 772 197 1211 0 337 -37 634 -120 966 -17 65 -30 121 -30 125 0 5 27 16 59 26 86 27 133 62 129 95 -4 37 -54 60 -174 80 l-96 17 -44 100 c-204 464 -469 842 -851 1216 -494 484 -1098 812 -1773 963 -332 74 -739 103 -1045 75z m1380 -913 c351 -93 457 -534 189 -785 -34 -32 -87 -70 -117 -84 -67 -32 -169 -49 -240 -41 -38 5 -57 3 -68 -7 -8 -8 -51 -47 -96 -88 -46 -41 -83 -77 -83 -81 0 -5 86 -45 267 -121 36 -15 53 -33 109 -121 102 -157 126 -194 194 -307 50 -85 205 -328 215 -339 1 -1 121 20 266 47 308 58 385 64 694 53 193 -7 225 -10 202 -20 -16 -7 -54 -24 -85 -38 -58 -27 -209 -92 -317 -137 -822 -342 -888 -364 -946 -319 -14 11 -79 93 -145 182 -376 511 -354 475 -334 564 8 37 72 213 110 304 5 12 8 22 6 22 -2 0 -35 -33 -72 -72 -151 -161 -356 -356 -433 -411 -193 -140 -350 -207 -484 -207 -104 -1 -665 -35 -671 -41 -3 -3 50 -15 117 -27 528 -99 1030 -232 1387 -369 272 -104 311 -127 345 -203 24 -54 16 -121 -110 -890 -84 -509 -105 -623 -119 -636 -10 -10 -278 -94 -301 -94 -7 0 -9 236 -7 679 l2 678 -102 16 c-57 9 -179 28 -273 42 -679 103 -850 137 -972 196 -219 105 -313 312 -248 541 53 186 291 542 663 997 l85 104 234 -5 c129 -3 233 -5 231 -3 -2 1 -79 42 -173 90 -211 109 -340 180 -567 312 -174 101 -193 110 -200 96 -3 -7 -107 -105 -596 -562 -68 -64 -132 -121 -142 -128 -10 -7 -30 -34 -45 -60 -44 -77 -222 -378 -300 -508 -115 -191 -111 -181 -85 -227 12 -22 24 -65 27 -98 8 -81 -19 -133 -148 -285 -95 -113 -235 -255 -252 -255 -10 0 37 91 128 249 41 72 75 137 75 145 0 13 -36 33 -45 24 -2 -2 -29 -41 -59 -88 -76 -117 -156 -226 -183 -252 -22 -20 -23 -21 -23 -2 0 30 60 158 128 276 34 60 62 112 62 118 0 5 -12 13 -26 16 -30 8 -26 12 -133 -165 -108 -178 -131 -210 -131 -185 0 38 52 199 103 319 101 240 148 289 280 290 l68 1 79 130 c348 574 340 559 340 627 l0 63 148 230 c165 257 278 419 424 607 167 214 218 257 289 240 31 -8 1087 -520 1117 -542 16 -11 42 -63 76 -149 29 -73 55 -135 58 -138 4 -3 24 13 45 37 21 23 44 48 51 55 17 18 16 24 -18 95 -121 259 20 570 291 643 69 19 180 20 244 2z m-2665 -401 c10 -12 10 -21 2 -40 l-12 -25 -230 0 -230 0 -12 25 c-8 19 -8 28 2 40 10 13 48 15 240 15 192 0 230 -2 240 -15z m-46 -271 c23 -9 19 -50 -6 -68 -19 -14 -77 -16 -425 -16 -390 0 -404 1 -423 20 -24 24 -25 34 -4 54 13 14 66 16 429 16 227 0 420 -3 429 -6z m-396 -301 c197 -6 212 -8 218 -25 3 -12 -1 -27 -12 -39 -16 -18 -35 -19 -399 -19 -283 0 -384 3 -393 12 -20 20 -14 58 11 68 27 11 288 12 575 3z m4692 -72 c125 -42 233 -108 325 -198 59 -58 145 -176 145 -199 0 -2 -331 -4 -735 -4 -597 0 -735 2 -735 13 0 36 145 199 239 269 68 51 200 113 293 138 60 16 100 19 223 17 139 -3 157 -6 245 -36z m-4646 -267 c21 -8 20 -43 -1 -66 -15 -17 -40 -18 -387 -18 -204 0 -381 3 -394 6 -26 8 -39 48 -22 69 11 13 69 15 400 15 214 0 395 -3 404 -6z m1150 0 c21 -8 20 -43 -1 -66 -14 -15 -32 -18 -120 -18 -57 0 -113 5 -124 10 -22 12 -27 65 -6 73 18 8 232 8 251 1z m4183 -285 c-185 -115 -637 -180 -1105 -158 -314 15 -495 42 -654 99 -77 27 -178 76 -178 86 0 2 447 4 993 4 l992 0 -48 -31z m-5517 -34 c10 -13 11 -20 1 -39 l-13 -23 -406 -6 c-351 -6 -409 -4 -429 8 -22 15 -31 54 -16 68 3 4 196 7 428 7 368 0 424 -2 435 -15z m1138 -18 c7 -55 -1 -57 -234 -57 l-214 0 -11 24 c-8 17 -8 29 0 45 12 21 16 21 234 19 l222 -3 3 -28z m-180 -289 c17 -17 15 -38 -5 -60 -14 -16 -34 -18 -195 -18 -105 0 -187 4 -199 10 -19 10 -27 59 -12 73 12 13 398 8 411 -5z m-68 -313 c10 -12 10 -21 2 -40 l-12 -25 -219 0 c-238 0 -250 3 -237 55 l6 25 224 0 c188 0 226 -2 236 -15z m-106 -301 c19 -18 20 -38 6 -65 -10 -18 -24 -19 -242 -19 -201 0 -234 2 -250 17 -22 20 -23 41 -1 65 15 16 36 18 244 18 194 0 230 -2 243 -16z m261 -137 c22 -34 102 -158 178 -276 l139 -214 -156 -231 c-86 -128 -180 -263 -209 -301 l-52 -69 -195 -81 c-107 -45 -213 -89 -235 -99 -57 -25 -608 -249 -705 -287 l-82 -31 -314 63 c-248 49 -312 65 -302 74 7 7 171 92 363 190 386 196 638 325 760 390 44 23 157 82 252 130 l172 88 52 111 c29 61 87 183 129 271 41 88 94 199 115 247 22 48 42 87 45 88 3 0 23 -28 45 -63z m-386 -185 c7 -12 6 -26 -2 -43 l-13 -24 -623 -3 c-570 -2 -626 -1 -643 14 -22 21 -23 38 -2 58 14 14 86 16 644 16 597 0 630 -1 639 -18z m-292 -298 c27 -7 38 -36 24 -63 -11 -19 -25 -20 -649 -23 -350 -2 -657 -1 -681 2 -30 3 -48 12 -58 27 -13 19 -12 24 6 42 21 21 26 21 679 21 361 0 667 -3 679 -6z m-476 -304 c23 -13 24 -37 2 -62 -15 -17 -42 -18 -438 -18 -314 0 -424 3 -433 12 -17 17 -15 44 4 62 13 14 66 16 430 16 267 0 422 -4 435 -10z m-546 -300 c8 -26 -11 -58 -38 -65 -13 -4 -114 -5 -226 -3 -196 3 -203 4 -221 25 -10 13 -16 32 -13 43 5 19 14 20 248 20 233 0 244 -1 250 -20z m4708 -620 c1212 0 1129 5 1063 -64 l-33 -36 -2935 0 -2935 0 -27 21 c-25 20 -59 73 -51 80 2 2 862 3 1912 2 1049 -1 2402 -3 3006 -3z m-941 -350 c79 -24 162 -83 217 -151 23 -28 41 -54 41 -58 -1 -7 -185 -141 -195 -141 -4 0 -29 20 -56 44 -81 73 -180 82 -265 24 -68 -46 -75 -77 -77 -345 l-2 -238 28 -48 c35 -60 86 -87 162 -87 67 0 141 34 179 82 l25 33 28 -26 c15 -15 61 -51 100 -82 l73 -55 -33 -39 c-126 -153 -314 -215 -501 -167 -169 44 -308 197 -336 370 -13 75 -13 429 0 514 18 126 110 264 218 327 109 64 269 82 394 43z m-2873 -8 c7 -14 6 -25 -5 -40 -15 -22 -16 -22 -438 -22 -436 0 -446 1 -446 40 0 39 10 40 452 40 405 0 428 -1 437 -18z m754 -11 c170 -67 269 -244 239 -426 -21 -129 -88 -217 -211 -278 -59 -29 -73 -32 -187 -35 l-124 -4 0 -204 c0 -112 -3 -204 -6 -204 -4 0 -64 39 -135 86 l-129 86 0 505 0 505 248 -4 c229 -4 251 -6 305 -27z m683 21 c13 -8 204 -358 204 -373 0 -29 24 9 100 158 47 91 93 179 102 194 l18 29 148 0 c82 0 151 -3 154 -6 3 -3 -19 -49 -49 -102 -30 -53 -109 -196 -175 -317 -67 -121 -126 -226 -132 -234 -7 -9 -13 -116 -16 -315 l-5 -301 -132 -3 -133 -3 0 292 0 292 -117 206 c-64 113 -142 250 -174 304 -59 98 -99 172 -99 182 0 8 293 6 306 -3z m3262 -15 c2 -10 -4 -27 -14 -38 -17 -18 -38 -19 -676 -19 l-658 0 -12 25 c-8 19 -8 28 2 40 11 13 90 15 684 13 640 -3 671 -4 674 -21z m-4691 -293 c3 -8 1 -26 -5 -40 l-12 -24 -212 0 c-117 0 -218 4 -224 8 -17 11 -22 35 -12 55 8 15 30 17 234 17 194 0 225 -2 231 -16z m4466 -5 c3 -13 -2 -28 -14 -40 -18 -18 -38 -19 -472 -19 -494 0 -497 0 -483 53 l6 27 479 0 c476 0 479 0 484 -21z m-4506 -275 c30 -8 39 -41 17 -65 -14 -15 -31 -19 -84 -19 -38 0 -71 5 -78 12 -18 18 -15 55 6 67 19 11 104 14 139 5z m4167 -10 c21 -20 20 -37 -2 -58 -17 -15 -53 -16 -357 -14 -328 3 -338 4 -351 23 -12 18 -11 24 2 43 15 22 16 22 354 22 294 0 341 -2 354 -16z m-396 -306 c19 -19 14 -45 -10 -62 -34 -24 -343 -23 -370 1 -22 20 -23 37 -2 57 13 13 45 16 193 16 124 0 181 -4 189 -12z"/>
<path d="M3682 2828 l3 -143 71 1 c88 2 126 22 155 81 36 74 6 159 -67 189 -19 8 -63 14 -99 14 l-66 0 3 -142z"/>
</g>
</svg>